<?xml version="1.0" encoding="utf-8"?>
<svg width="512" height="512.001" viewBox="0 0 512 512.001" fill="none" xmlns="http://www.w3.org/2000/svg">
  <defs>
    <clipPath id="clip_path_1">
      <rect width="512" height="512.001" />
    </clipPath>
  </defs>
  <g clip-path="url(#clip_path_1)">
    <rect width="512" height="512.001" />
    <g id="Group" transform="matrix(1 0 0 -1 -0 512)">
      <path id="Shape" d="M152.241 123.053C132.052 121.416 117.351 118.483 103.891 113.299C101.931 112.549 98.9909 111.457 97.3574 110.843C94.2866 109.684 80.435 102.658 76.4494 100.202C73.9013 98.7018 66.7141 93.7906 61.1605 89.8343C59.135 88.4019 57.5016 86.9694 57.5016 86.5602C57.5016 86.2191 57.1095 85.9463 56.6522 85.9463C56.1948 85.9463 55.3454 85.4006 54.7574 84.7867C54.1693 84.1046 52.2746 82.3311 50.5758 80.8304C42.6046 74.0093 34.3721 64.9372 25.2902 52.8638C23.4608 50.4764 16.0776 39.0169 15.4242 37.5162C15.1629 36.9705 14.2482 35.2653 13.3988 33.7646C9.93591 27.762 2.61811 11.4595 2.61811 9.82242C2.61811 9.27673 2.03007 7.70789 1.31136 6.34366C0.00460815 3.81982 -0.452751 0 0.527313 0C0.984673 0 4.51289 1.36423 12.4187 4.50195C14.7709 5.45691 17.5804 6.48007 18.6911 6.75293C19.8019 7.09396 22.0233 7.77609 23.5914 8.38998C45.5448 16.4389 81.4151 23.874 114.018 27.0799C131.594 28.7852 179.552 28.8534 198.304 27.0799C211.698 25.8521 228.882 23.7375 235.219 22.4415C237.18 22.0323 241.165 21.3501 244.04 20.8044C251.946 19.4402 259.852 17.7349 264.752 16.3025C267.104 15.5522 269.587 15.0065 270.24 15.0065C270.894 15.0065 273.311 14.3926 275.663 13.6423C278.015 12.9601 282.197 11.6641 284.876 10.9138C293.762 8.25357 298.858 6.61649 302.125 5.3887C303.889 4.63837 305.915 4.09268 306.699 4.09268C307.483 4.09268 308.397 3.81982 308.789 3.47879C309.508 2.79666 316.957 0 318.067 0C319.701 0 318.982 2.59204 314.474 13.9833C311.664 21.0091 306.96 31.0361 306.372 31.2408C306.045 31.3772 305.784 31.8547 305.784 32.2639C305.784 33.2871 299.054 45.0195 298.466 45.0195C298.205 45.0195 297.943 45.3605 297.943 45.7698C297.943 46.5201 297.813 46.7247 291.279 55.5922C278.93 72.2358 261.812 88.4701 247.96 96.5872C246.915 97.2011 245.739 98.0879 245.281 98.4971C244.236 99.5885 225.157 109.479 221.499 110.843C207.059 116.164 200.068 118.21 190.463 119.984C177.722 122.235 159.951 123.667 152.241 123.053C152.241 123.053 152.241 123.053 152.241 123.053ZM160.931 97.6785C161.519 96.2461 162.041 94.6772 162.041 94.268C162.041 93.7905 162.629 92.2899 163.348 90.9256C164.067 89.4932 164.655 87.9926 164.655 87.5151C164.655 87.0376 164.982 85.878 165.439 84.923C166.158 83.2177 166.223 83.2177 174.586 83.2177C180.859 83.2177 182.949 83.0131 182.949 82.3992C182.949 81.9217 180.009 79.2615 176.416 76.4648C169.033 70.8033 168.902 70.4622 171.123 63.9821C171.777 62.004 172.822 58.6617 173.476 56.6153C174.064 54.569 174.717 52.4544 174.913 51.977C175.24 51.1584 173.41 52.3862 164.002 59.412C162.041 60.8444 159.951 62.0722 159.363 62.0722C158.187 62.0722 152.176 58.116 151.391 56.82C151.13 56.3425 150.411 55.9332 149.954 55.9332C149.431 55.9332 148.974 55.6604 148.974 55.3875C148.974 54.9101 145.576 52.5226 144.858 52.5226C144.466 52.5226 145.903 57.7067 147.733 63.3C149.301 67.9384 149.366 71.4854 147.863 72.0993C147.21 72.3721 146.426 72.9178 146.034 73.3271C145.707 73.7364 143.094 75.8509 140.349 78.0337C137.54 80.2164 135.253 82.2628 135.253 82.6038C135.253 82.9449 139.369 83.2177 144.4 83.2177C144.4 83.2177 153.548 83.2177 153.548 83.2177C153.548 83.2177 153.94 85.1277 153.94 85.1277C154.266 86.9012 155.638 90.8574 158.056 97.3375C158.644 98.9745 159.297 100.271 159.493 100.271C159.689 100.271 160.343 99.111 160.931 97.6785C160.931 97.6785 160.931 97.6785 160.931 97.6785ZM98.0761 79.3297C99.6442 75.3052 100.69 72.1675 101.474 69.4391C101.474 69.4391 102.192 66.9153 102.192 66.9153C102.192 66.9153 110.033 66.7106 110.033 66.7106C117.743 66.506 119.311 65.9603 116.567 64.4597C114.214 63.0954 110.098 60.1624 107.942 58.1842C107.942 58.1842 105.786 56.2743 105.786 56.2743C105.786 56.2743 107.158 50.8856 107.158 50.8856C107.877 47.8843 108.726 45.1559 108.922 44.8148C109.118 44.4737 109.51 43.1095 109.772 41.8135C109.772 41.8135 110.294 39.4261 110.294 39.4261C110.294 39.4261 108.922 40.7221 108.922 40.7221C106.635 42.7003 103.368 45.0194 102.65 45.0194C102.323 45.0194 101.931 45.4287 101.735 45.9062C101.539 46.3154 100.363 47.2704 99.1215 48.0207C99.1215 48.0207 96.8347 49.2485 96.8347 49.2485C96.8347 49.2485 92.7838 46.3154 92.7838 46.3154C90.5623 44.6784 88.2102 42.9731 87.5568 42.632C86.9034 42.2228 85.9233 41.4724 85.3353 40.995C83.5712 39.4943 83.4405 40.5857 84.8126 44.8148C88.5368 56.3425 88.5368 57.2292 85.27 58.7299C84.5512 59.071 82.6565 60.4352 81.023 61.663C79.3896 62.959 77.7562 64.0504 77.3641 64.0504C76.9721 64.1186 76.2534 64.5279 75.8614 65.0735C74.6853 66.506 76.3187 66.847 84.3552 66.847C89.7783 66.847 91.477 67.0517 91.477 67.7338C91.477 68.2113 92.0651 69.9166 92.7838 71.4854C93.5025 72.9861 94.0905 74.896 94.0905 75.6463C94.0905 76.3966 94.3519 77.147 94.6786 77.4198C95.0053 77.6245 95.4626 78.7158 95.724 79.8072C96.312 82.5356 96.9 82.3992 98.0761 79.3297C98.0761 79.3297 98.0761 79.3297 98.0761 79.3297ZM223.589 79.3297C224.635 76.6695 226.987 70.1212 227.575 68.0749C227.902 67.0517 229.078 66.8471 235.677 66.7106C243.256 66.506 244.693 65.9603 242.015 64.4597C239.662 63.0955 235.546 60.1624 233.325 58.1842C233.325 58.1842 231.103 56.2061 231.103 56.2061C231.103 56.2061 232.214 51.6359 232.214 51.6359C232.802 49.1803 233.717 46.0426 234.239 44.7466C236.396 39.4261 236.265 39.4943 225.353 47.6115C224.177 48.43 223.067 49.1121 222.805 49.1121C222.413 49.1121 217.317 45.6333 212.09 41.7453C209.019 39.4261 208.17 39.9036 209.738 42.9049C210.065 43.587 211.045 46.9294 211.894 50.3399C213.135 55.0465 213.331 56.7518 212.743 57.2293C211.175 58.5935 203.4 63.914 202.355 64.3232C201.767 64.5279 201.244 65.21 201.244 65.8239C201.244 66.7106 202.485 66.8471 209.084 66.8471C215.095 66.8471 216.925 67.0517 216.925 67.7338C216.925 68.2113 217.513 69.9166 218.232 71.4854C218.95 72.9861 219.538 74.896 219.538 75.6463C219.538 76.3967 219.8 77.147 220.126 77.4198C220.453 77.6245 220.911 78.7158 221.172 79.8072C221.76 82.5357 222.413 82.3992 223.589 79.3297C223.589 79.3297 223.589 79.3297 223.589 79.3297Z" fill="#093F64" transform="translate(99.716 388.804)" />
      <path id="Path" d="M139.739 57.2294C122.032 56.5473 96.2238 53.4096 82.2416 50.2719C79.04 49.5898 75.7732 48.9759 75.0545 48.9759C73.7477 49.0441 66.2339 47.2706 57.4134 44.8832C54.9305 44.201 51.533 43.3143 49.8996 42.8368C45.8486 41.8137 38.8575 39.7673 36.5054 38.8806C30.5597 36.766 27.8155 35.8793 26.0514 35.3336C25.006 35.0608 22.1965 34.0376 19.8443 33.0826C3.90199 26.6707 3.96732 26.739 3.11794 23.3966C1.35382 16.9847 -0.6063 1.15973 0.17775 0.341187C0.504433 0.00012207 2.39922 0.682251 4.6207 1.97827C17.0348 9.20865 41.2097 20.1907 48.8541 22.1006C49.8996 22.3734 51.533 22.9873 52.4477 23.4648C53.3624 24.0105 54.6039 24.4198 55.1265 24.4198C55.6492 24.4198 57.8707 24.9655 60.0269 25.7158C66.4953 27.8986 81.3922 31.8548 84.8551 32.4005C85.9658 32.5369 89.7554 33.219 93.3489 33.9694C116.805 38.6077 137.778 40.4494 167.18 40.4494C192.335 40.4494 200.894 39.8355 223.044 36.6296C243.298 33.6965 269.237 27.5575 280.802 22.9873C282.566 22.237 284.33 21.6913 284.722 21.6913C285.572 21.6913 292.563 18.9629 302.755 14.5291C312.556 10.3683 327.192 3.13785 330.328 0.955078C334.379 -1.77335 335.032 1.15973 332.811 12.1418C332.092 15.6887 331.504 19.2357 331.504 19.9861C331.504 20.7364 331.177 22.5099 330.785 23.8741C330.328 25.8522 329.74 26.5343 328.368 26.8754C327.388 27.1482 326.342 27.5575 325.95 27.8304C323.925 29.3992 298.182 38.062 283.808 42.0865C270.283 45.8381 242.972 51.7043 238.921 51.7043C237.81 51.7043 234.87 52.1136 232.387 52.6593C229.97 53.205 224.743 53.9553 220.757 54.3645C216.837 54.7738 209.454 55.5241 204.423 56.0698C193.446 57.2294 157.968 57.8433 139.739 57.2294C139.739 57.2294 139.739 57.2294 139.739 57.2294Z" fill="#B8231F" transform="translate(92.29 349.378)" />
      <path id="Path" d="M118.174 30.8997C105.955 29.8765 90.9278 28.3077 83.5447 27.1481C71.0652 25.2382 52.444 21.2819 45.2569 18.9627C43.1008 18.2124 40.8793 17.6667 40.3566 17.6667C39.2459 17.6667 23.7609 12.4145 17.5538 9.95883C11.4774 7.50323 6.57713 5.45691 5.27038 4.84299C4.68234 4.50195 3.31025 3.81982 2.26485 3.27414C1.21945 2.72845 0.239395 1.97812 0.108719 1.50064C-0.217972 0.613892 -0.740669 0.545685 13.9603 2.59204C33.8882 5.3887 44.1462 6.68469 49.3078 7.02576C52.248 7.23041 58.2591 7.8443 62.702 8.38998C90.4704 11.937 133.201 13.9151 158.356 12.8919C175.344 12.1416 200.956 10.2317 216.18 8.45819C221.015 7.91251 227.352 7.29861 230.227 7.09396C237.676 6.54828 270.344 2.25098 279.492 0.613892C286.156 -0.613892 287.267 0 282.693 2.4556C279.23 4.2973 273.807 6.75293 273.285 6.75293C273.089 6.75293 271.978 7.23041 270.867 7.70789C268.319 8.93567 261.655 11.4595 258.976 12.2098C257.93 12.4827 255.709 13.233 254.075 13.7787C248.914 15.6204 241.988 17.6667 241.073 17.6667C240.551 17.6667 238.198 18.2806 235.846 18.9627C223.236 22.8508 199.911 27.0799 176.651 29.6719C166.915 30.7633 126.602 31.5818 118.174 30.8997C118.174 30.8997 118.174 30.8997 118.174 30.8997Z" fill="#B8231F" transform="translate(117.449 347.946)" />
      <path id="Path" d="M26.4863 87.0376C10.4786 83.9681 1.20068 70.7351 0.155273 49.4532C-0.367432 39.4943 0.481964 27.4892 1.91937 24.4878C2.50742 23.2601 2.96478 21.8958 2.96478 21.3501C2.96478 20.0541 6.88504 12.9601 7.60373 12.9601C7.93042 12.9601 8.19177 12.6191 8.19177 12.2098C8.19177 11.3231 11.7853 7.50325 12.6347 7.50325C13.0267 7.50325 13.4188 7.23039 13.5494 6.88934C13.6801 6.6165 14.9215 5.59332 16.3589 4.63837C20.0179 2.25098 28.7731 0 34.4574 0C39.4231 0 48.2436 2.18275 50.0731 3.81982C50.5958 4.36552 51.3798 4.7748 51.7065 4.7748C53.928 4.91121 60.2004 13.5058 59.743 15.8932C59.4163 17.121 47.4596 26.6024 46.0875 26.6024C45.5648 26.6024 44.1273 25.511 42.9513 24.215C40.1418 21.2819 37.1363 20.2587 32.3666 20.5998C27.6623 20.9409 25.3102 22.7826 22.8274 28.2395C20.9979 32.1957 20.9326 32.4686 20.9326 43.9281C20.9326 43.9281 20.9326 55.5922 20.9326 55.5922C20.9326 55.5922 23.1541 59.8213 23.1541 59.8213C26.1596 65.6875 28.9691 67.5292 34.8495 67.5292C39.2924 67.5292 39.2924 67.5292 42.9513 64.1186C44.9767 62.2769 47.0022 60.708 47.3942 60.708C48.2436 60.708 52.1639 63.4365 52.4905 64.255C52.6212 64.5279 53.0132 64.8007 53.3399 64.8007C54.5814 64.8007 60.3964 69.9848 60.3964 71.0762C60.4617 72.5768 59.0896 75.7145 58.3709 75.7145C58.1096 75.7145 57.8482 76.1238 57.8482 76.6013C57.8482 77.7608 52.0985 82.9449 48.9623 84.6502C43.278 87.7197 34.7188 88.6065 26.4863 87.0376C26.4863 87.0376 26.4863 87.0376 26.4863 87.0376Z" fill="#B8231F" transform="translate(313.676 248.971)" />
      <path id="Path" d="M1.43742 84.0965L0 82.5277C0 82.5277 0 42.0102 0 42.0102C0 4.28935 0.0653381 1.49269 1.17607 0.674149C2.09081 -0.0761719 6.59909 -0.144379 24.1749 0.196671C36.197 0.401306 46.7163 0.878784 47.5657 1.15163C48.9378 1.69733 49.0031 2.03838 49.0031 9.88268C49.0031 16.3627 48.8071 18.2727 47.9577 19.0912C47.1083 20.0462 44.8869 20.1826 33.5835 20.1826C33.5835 20.1826 20.2546 20.1826 20.2546 20.1826L20.2546 27.0037L20.2546 33.8248C20.2546 33.8248 31.362 33.8248 31.362 33.8248C41.62 33.8248 42.4694 33.8931 43.1227 35.1208C44.0375 37.0307 43.9721 51.3551 42.9921 51.969C42.6 52.2419 37.3077 52.3783 31.2313 52.3101C31.2313 52.3101 20.2546 52.1737 20.2546 52.1737L20.2546 58.9266L20.2546 65.6795C20.2546 65.6795 24.6976 66.0888 24.6976 66.0888C27.1151 66.3616 33.0608 66.5662 38.0264 66.5662C38.0264 66.5662 46.9123 66.5662 46.9123 66.5662C46.9123 66.5662 47.631 68.6808 47.631 68.6808C48.7418 72.0914 48.5457 82.323 47.3043 84.1647C46.3243 85.6654 46.3243 85.6654 24.5669 85.6654C24.5669 85.6654 2.80951 85.6654 2.80951 85.6654L1.43742 84.0965L1.43742 84.0965Z" fill="#B8231F" transform="translate(160.485 249.934)" />
      <path id="Shape" d="M1.11073 83.8893C0.0653381 82.6615 0 79.5238 0 42.2122C0 6.60593 0.130676 1.83115 1.04539 0.87619C1.89479 -0.0105591 3.39755 -0.146973 10.65 0.12587C16.3997 0.398712 19.4052 0.739761 19.7319 1.35367C19.9933 1.76294 20.2546 8.1066 20.2546 15.337C20.2546 15.337 20.2546 28.5017 20.2546 28.5017C20.2546 28.5017 22.9334 28.2971 22.9334 28.2971C25.8736 28.0925 25.743 28.2289 30.6432 17.1787C32.146 13.8363 33.9755 9.88007 34.6288 8.51584C35.3475 7.15164 35.9356 5.58276 35.9356 5.10529C35.9356 4.62781 36.589 3.40001 37.4384 2.37685C38.8758 0.603348 39.0718 0.603348 48.3497 0.262283C53.5767 0.12587 58.2156 0.12587 58.673 0.262283C59.5877 0.603348 59.7838 4.96887 58.869 5.51456C58.1503 5.99203 45.7362 31.9805 45.7362 33.0037C45.7362 33.4812 46.3242 33.9586 46.9776 34.2315C49.1991 34.9136 52.7273 38.8699 54.9488 43.099C57.1049 47.1234 57.1703 47.3281 57.1703 56.0591C57.1703 64.5855 57.1049 65.063 55.1448 69.4285C51.8779 76.5225 47.3043 80.4106 38.5491 83.4118C35.6089 84.3668 32.0807 84.6396 18.6212 84.9125C3.1362 85.1171 2.22147 85.1171 1.11073 83.8893C1.11073 83.8893 1.11073 83.8893 1.11073 83.8893ZM34.3675 63.8352C36.1316 61.8571 36.2623 61.4478 36.2623 56.0591C36.2623 50.6704 36.1316 50.193 34.4328 48.4195C32.7994 46.646 32.2113 46.5096 26.4617 46.3049C26.4617 46.3049 20.2546 46.0321 20.2546 46.0321L20.2546 55.9909L20.2546 65.9498C20.2546 65.9498 26.331 65.9498 26.331 65.9498C32.2767 65.9498 32.4727 65.8816 34.3675 63.8352C34.3675 63.8352 34.3675 63.8352 34.3675 63.8352Z" fill="#B8231F" transform="translate(217.981 250.551)" />
      <path id="Path" d="M0.22052 83.668C0.0245056 83.1905 -0.0408325 64.2277 0.0245056 41.5134C0.0245056 41.5134 0.22052 0.245544 0.22052 0.245544C0.22052 0.245544 9.3024 0.0409241 9.3024 0.0409241C15.3788 -0.0955048 18.6457 0.109131 19.2337 0.654816C20.4751 1.7462 20.6058 82.3719 19.3643 83.668C18.2536 84.8275 0.612549 84.8275 0.22052 83.668C0.22052 83.668 0.22052 83.668 0.22052 83.668Z" fill="#B8231F" transform="translate(285.385 251.113)" />
      <path id="Shape" d="M22.7797 88.7614C21.9957 88.2158 21.3423 87.2608 21.3423 86.7833C21.3423 86.2376 20.7543 83.7138 19.9702 81.19C19.2515 78.598 18.0754 74.5735 17.4221 72.1179C12.7177 55.2015 11.0843 49.1989 9.64691 43.8102C6.11868 30.3726 3.89719 22.2555 1.74106 15.1615C0.172974 10.1138 -0.41507 5.20264 0.30365 4.11125C0.630341 3.49734 3.76651 3.08809 9.71222 2.81525C18.5328 2.33775 18.5981 2.33775 19.3822 3.97484C20.1009 5.33905 21.9957 12.2284 23.1718 17.4807C23.4984 19.1177 23.4984 19.1177 29.7708 18.6403C33.2337 18.3674 38.0034 18.0263 40.3555 17.7535C40.3555 17.7535 44.6024 17.3442 44.6024 17.3442C44.6024 17.3442 46.0399 11.8191 46.0399 11.8191C46.8239 8.81783 47.608 5.47548 47.804 4.45232C48 3.42914 48.7187 2.26955 49.5027 1.86028C50.2215 1.45102 54.5337 0.768906 59.042 0.427841C66.8825 -0.254272 67.3399 -0.18605 68.5813 1.10995C69.7574 2.33775 69.8227 2.81525 69.2346 5.06621C68.8426 6.49864 67.8626 10.2503 67.0785 13.4562C66.2945 16.6621 65.0531 21.4369 64.3344 24.0289C61.7209 33.5785 59.1727 43.1281 57.6046 49.6082C55.6445 57.93 54.7297 61.4769 53.815 64.4782C53.2923 66.2517 52.2469 69.8669 51.5282 72.459C48.196 84.6688 47.2159 87.5336 45.9745 88.6932C44.8638 89.7164 43.2957 89.8528 34.4751 89.8528C26.308 89.8528 23.9558 89.6482 22.7797 88.7614C22.7797 88.7614 22.7797 88.7614 22.7797 88.7614ZM36.958 52.6094C37.0233 51.8591 37.546 49.5399 38.2647 47.4936C38.9181 45.4473 39.6368 41.9685 39.8982 39.7857C39.8982 39.7857 40.4209 35.7613 40.4209 35.7613C40.4209 35.7613 37.8727 36.1705 37.8727 36.1705C36.5006 36.4434 33.6911 36.648 31.535 36.648C31.535 36.648 27.7454 36.648 27.7454 36.648C27.7454 36.648 28.2028 38.5579 28.2028 38.5579C28.4641 39.5811 28.9215 41.7639 29.1828 43.4691C29.8362 46.7433 31.2736 52.9505 33.0377 59.3624C33.0377 59.3624 34.0831 63.2504 34.0831 63.2504C34.0831 63.2504 35.5206 58.6802 35.5206 58.6802C36.3046 56.0882 36.958 53.428 36.958 52.6094C36.958 52.6094 36.958 52.6094 36.958 52.6094Z" fill="#B8231F" transform="translate(376.317 245.747)" />
      <path id="Shape" d="M23.4719 92.1035C22.6878 91.3531 21.8384 89.9207 21.6424 88.8293C21.2504 86.9194 19.813 81.2579 17.3955 72.1858C14.0633 59.7031 11.1884 48.4482 9.555 41.4907C8.77095 38.2848 7.72555 34.2603 7.20285 32.4868C6.68015 30.7133 5.96144 27.9848 5.63475 26.3478C5.04671 23.3465 3.87064 18.7081 1.7145 10.7956C0.0157306 4.65659 -0.376294 1.7235 0.342418 0.632126C0.865118 -0.186417 2.36788 -0.186417 9.94702 0.495697C19.8783 1.38245 20.3357 1.58708 21.0544 5.95261C21.2504 7.31683 22.0345 10.3863 22.6878 12.7737C23.3412 15.1611 23.9292 17.6849 23.9292 18.3671C23.9292 20.0041 24.9093 20.2088 36.474 20.618C36.474 20.618 46.144 20.9591 46.144 20.9591C46.144 20.9591 46.8627 18.0942 46.8627 18.0942C47.2547 16.5254 48.1694 13.1148 48.8881 10.4545C49.6069 7.86252 50.3256 5.27049 50.4562 4.72479C50.7176 3.97447 52.351 3.83804 59.7342 4.17911C64.6345 4.38374 69.2081 4.72479 69.8615 4.99763C71.2989 5.61154 71.2989 7.45325 69.6655 12.9102C68.9467 15.2975 67.7053 19.4584 66.9866 22.0505C66.2026 24.7107 65.0265 28.667 64.3731 30.9179C63.1971 34.806 62.6744 36.8523 59.1461 50.0171C56.402 60.317 52.9391 73.1407 51.3056 78.6659C50.7176 80.9168 49.6722 84.6684 49.0188 87.0558C48.4308 89.375 47.4507 91.6942 46.928 92.1717C46.2747 92.7174 42.6158 93.0584 35.4286 93.1949C25.8894 93.3313 24.7786 93.2631 23.4719 92.1035C23.4719 92.1035 23.4719 92.1035 23.4719 92.1035ZM36.67 60.7263C37.1927 58.2025 38.0421 54.7919 38.6302 53.1548C39.1529 51.5178 39.6102 49.4714 39.6102 48.6529C39.6102 47.7661 40.0676 45.5152 40.721 43.6053C41.309 41.6953 41.6357 39.9901 41.505 39.8536C41.3743 39.7172 38.4342 39.3761 34.9713 39.1033C34.9713 39.1033 28.6989 38.6258 28.6989 38.6258C28.6989 38.6258 29.1562 41.9682 29.1562 41.9682C29.6136 45.1059 30.3323 48.1754 33.1418 59.021C33.7952 61.7495 34.3832 64.819 34.3832 65.8421C34.4486 67.4792 34.5139 67.5474 35.1019 66.5243C35.494 65.9103 36.1473 63.2501 36.67 60.7263C36.67 60.7263 36.67 60.7263 36.67 60.7263Z" fill="#B8231F" transform="translate(0 241.586)" />
      <path id="Path" d="M2.65324 87.2664C1.86919 87.13 0.88913 86.3797 0.562439 85.6975C0.10508 84.8108 -0.0909348 70.0771 0.0397415 42.7244C0.235756 6.57243 0.366432 0.979111 1.21582 0.365204C2.39189 -0.453339 15.3287 0.228775 17.0928 1.18375C18.1382 1.79764 18.2036 3.63934 18.2689 23.4888C18.3342 35.3576 18.5302 44.4979 18.6609 43.7476C18.8569 42.9973 19.5756 41.0874 20.229 39.5185C20.8824 37.9496 21.4704 36.3125 21.4704 35.9715C21.4704 35.5622 22.0585 34.198 22.7772 32.8338C23.4959 31.4696 24.0839 29.9689 24.0839 29.4914C24.0839 29.014 24.9986 26.4901 26.044 23.8981C27.1548 21.3061 28.3962 18.4412 28.7882 17.4863C30.291 13.7346 30.291 13.7346 34.9953 13.53C34.9953 13.53 39.5689 13.3254 39.5689 13.3254C39.5689 13.3254 40.8756 16.2584 40.8756 16.2584C41.6597 17.8955 42.9011 20.8286 43.6198 22.8067C46.2333 29.5596 47.7361 33.5159 48.7161 35.9033C49.2388 37.1993 50.0882 39.6549 50.6763 41.3602C51.199 43.0655 51.9177 44.7708 52.2444 45.1118C52.7017 45.5211 52.8324 37.9496 52.7671 24.3756C52.7017 6.91348 52.8324 2.88902 53.5511 2.41154C54.0738 2.07048 57.602 1.79764 61.3916 1.79764C67.9254 1.79764 68.3827 1.86584 69.8201 3.50293C69.8201 3.50293 71.3229 5.20821 71.3229 5.20821C71.3229 5.20821 70.9309 45.18 70.9309 45.18C70.6042 82.0141 70.4735 85.22 69.4281 86.4479C68.3827 87.6756 67.468 87.7439 59.5621 87.6074C59.5621 87.6074 50.8069 87.4028 50.8069 87.4028C50.8069 87.4028 49.3042 84.3333 49.3042 84.3333C47.344 80.2406 46.1026 77.3757 44.0118 72.0553C43.0318 69.5997 41.7904 66.3937 41.137 64.8931C40.4836 63.3924 39.3075 60.4593 38.4582 58.413C37.6088 56.3667 36.5634 53.6382 36.0407 52.4104C36.0407 52.4104 35.1259 50.1594 35.1259 50.1594C35.1259 50.1594 33.4925 53.4336 33.4925 53.4336C32.6431 55.2071 31.9244 56.9806 31.9244 57.2534C31.9244 57.5945 31.5324 58.8223 31.0097 59.9819C30.0296 62.3011 27.2855 69.1222 25.3907 74.1016C22.1891 82.3552 20.4904 86.1068 19.5756 86.8571C18.5956 87.6756 6.18147 87.9485 2.65324 87.2664C2.65324 87.2664 2.65324 87.2664 2.65324 87.2664Z" fill="#B8231F" transform="translate(78.25 247.174)" />
      <path id="Path" d="M1.17609 91.4426C0.0653381 90.8287 0 87.9638 0 47.1734C0 19.0022 0.261353 3.44998 0.653381 3.17714C1.63342 2.56323 14.6356 1.88112 16.5304 2.42682C16.5304 2.42682 18.2945 2.83609 18.2945 2.83609L18.4252 26.0961L18.6212 49.288C18.6212 49.288 20.9733 44.6496 20.9733 44.6496C22.2148 42.1258 25.8736 34.8272 29.0752 28.4153C32.2767 22.0717 36.2623 14.091 37.8957 10.8168C42.3387 1.67648 42.4694 1.54007 43.7108 0.789749C44.3641 0.448685 47.8924 0.107635 51.5513 0.0394135C56.7129 -0.0970001 58.4117 0.107635 58.869 0.857956C59.1957 1.40364 59.4571 21.1167 59.4571 45.6728C59.4571 45.6728 59.4571 89.6008 59.4571 89.6008C59.4571 89.6008 58.0197 90.8969 58.0197 90.8969C56.7783 91.92 55.4062 92.1247 49.1991 92.1929C42.404 92.1929 41.816 92.1247 40.9012 90.6922C39.9865 89.3962 39.8559 86.1903 39.8559 69.6832C39.7905 52.1528 39.7252 50.4476 38.8758 52.2893C38.3531 53.4489 37.0464 55.9045 36.0663 57.7462C33.8448 61.9753 26.8537 75.6175 23.1948 83.1208C18.4905 92.6022 19.0786 92.1929 10.062 92.1929C5.74969 92.1929 1.7641 91.8518 1.17609 91.4426C1.17609 91.4426 1.17609 91.4426 1.17609 91.4426Z" fill="#B8231F" transform="translate(452.543 242.725)" />
      <path id="Shape" d="M25.3515 84.6929C19.7978 83.3969 14.9628 80.4638 10.2585 75.5526C3.00607 67.9812 0.653915 60.8872 0.0658875 45.1304C-0.391479 31.2153 1.50331 22.3478 6.66496 14.1625C10.6505 7.95525 15.4202 4.34004 23.3913 1.61159C29.5331 -0.571167 42.2085 -0.50296 48.0236 1.61159C53.9039 3.86256 57.0401 5.70427 60.1763 8.9102C63.1819 11.9797 67.1674 17.7777 67.1674 19.0737C67.1674 19.5512 67.6248 20.6425 68.2128 21.4611C69.2582 23.0981 69.9769 26.5769 71.2184 36.4676C71.8064 41.3105 71.8064 44.1754 71.2184 49.0866C69.9116 59.3183 69.4542 61.2282 66.9714 66.6169C64.6846 71.5964 59.0003 78.895 57.4975 78.895C57.0401 78.895 56.7134 79.1678 56.7134 79.5771C56.7134 80.532 50.049 83.6698 45.7368 84.7611C41.1631 85.8525 30.1864 85.8525 25.3515 84.6929C25.3515 84.6929 25.3515 84.6929 25.3515 84.6929ZM42.7966 64.1613C48.8077 60.1368 51.4865 53.3839 51.4865 42.6066C51.4212 27.9411 45.8022 19.5512 36.1322 19.5512C25.6129 19.5512 20.1245 27.6001 20.1245 42.9476C20.1245 55.4303 24.2408 63.8203 31.1012 65.3209C34.3681 66.003 41.0325 65.3891 42.7966 64.1613C42.7966 64.1613 42.7966 64.1613 42.7966 64.1613Z" fill="#B8231F" transform="translate(176.296 153.023)" />
      <path id="Shape" d="M25.4163 84.6371C21.9534 83.6821 16.3344 81.2265 14.8316 79.9305C3.98558 70.8584 0 60.9678 0 43.0282C0 35.9342 0.261353 32.4555 1.11073 29.5906C1.69878 27.4761 2.22148 25.2933 2.22148 24.6794C2.22148 23.1788 5.42302 16.153 7.38313 13.3563C11.3034 7.763 16.7917 3.80675 24.1095 1.35114C29.9245 -0.558777 42.208 -0.422348 47.7617 1.62398C54.0994 3.94316 56.7129 5.64845 60.6985 9.80934C64.8801 14.2431 65.7295 15.6755 68.6697 22.7695C69.8457 25.6344 71.4792 36.9574 71.4792 42.2779C71.4138 48.2123 69.7804 59.3307 68.6043 61.9228C68.0163 63.0824 67.5589 64.3102 67.5589 64.7194C67.5589 66.0836 62.5933 73.8597 60.0451 76.4518C56.5169 80.067 49.9831 83.5457 44.6908 84.7053C39.5292 85.8649 29.8592 85.7967 25.4163 84.6371C25.4163 84.6371 25.4163 84.6371 25.4163 84.6371ZM43.6454 63.5598C45.1482 62.673 46.9776 60.7631 47.7617 59.2625C52.5313 50.3268 52.3353 33.0012 47.3697 25.4979C43.7761 20.1092 35.7396 17.9947 29.6632 20.9278C26.0043 22.633 24.6976 24.0655 22.4108 29.1131C20.5813 33.0012 20.516 33.6151 20.516 42.6189C20.516 54.7605 21.6921 58.2393 27.5071 63.4234C30.8393 66.2883 39.0065 66.4247 43.6454 63.5598C43.6454 63.5598 43.6454 63.5598 43.6454 63.5598Z" fill="#B8231F" transform="translate(254.309 153.079)" />
      <path id="Shape" d="M0.627228 83.1325C0.104553 82.1776 -0.0914612 69.8313 0.0392151 41.4554C0.235229 6.53123 0.365875 1.07433 1.21527 0.460434C1.80331 0.0511627 8.46774 -0.0852661 18.8564 0.0511627C36.7589 0.324005 36.6935 0.255798 45.9714 4.5531C54.3346 8.37294 61.8484 19.2185 63.6779 30.1323C64.7886 36.6806 64.7886 49.5726 63.6779 55.7798C62.7632 60.4864 60.6723 66.6254 59.3003 68.3307C58.9736 68.7399 57.7322 70.377 56.5561 71.9459C53.0932 76.5842 48.1929 79.9266 40.9404 82.5186C37.2162 83.8147 34.9947 83.9511 19.0524 84.2239C1.67264 84.565 1.28061 84.4968 0.627228 83.1325C0.627228 83.1325 0.627228 83.1325 0.627228 83.1325ZM36.2361 62.8056C39.699 60.8957 41.9205 57.7579 43.2926 52.7785C45.514 45.0024 44.2073 31.9741 40.8098 26.8582C37.2815 21.6742 32.1199 19.4232 24.4101 19.7642C24.4101 19.7642 19.8364 19.9689 19.8364 19.9689L19.6404 42.4104L19.5097 64.7837C19.5097 64.7837 26.5009 64.5109 26.5009 64.5109C32.0545 64.3062 34.1453 63.9652 36.2361 62.8056C36.2361 62.8056 36.2361 62.8056 36.2361 62.8056Z" fill="#B8231F" transform="translate(334.374 152.947)" />
      <path id="Path" d="M2.9403 84.1047C-0.0652237 83.2861 0.000114441 84.5822 0.000114441 41.8819C0.000114441 41.8819 0.000114441 1.43259 0.000114441 1.43259C0.000114441 1.43259 1.3722 0.614059 1.3722 0.614059C3.52834 -0.545532 18.8173 0.0683594 19.6014 1.36438C19.928 1.91006 20.2547 8.7312 20.2547 16.5755C20.2547 16.5755 20.2547 30.6952 20.2547 30.6952C20.2547 30.6952 31.8848 30.6952 31.8848 30.6952C46.5857 30.6952 45.867 30.0813 45.6057 41.3362C45.6057 41.3362 45.4097 49.4533 45.4097 49.4533L32.8649 49.658L20.2547 49.7944L20.2547 57.2976L20.2547 64.8009C20.2547 64.8009 33.1916 64.8009 33.1916 64.8009C45.867 64.8009 50.0486 65.2784 51.094 66.9836C51.3554 67.4611 51.6167 71.1445 51.6167 75.1008C51.6167 81.2398 51.4207 82.4676 50.4407 83.4226C49.3299 84.4457 46.8471 84.5822 26.7231 84.5139C14.3744 84.4457 3.65901 84.2411 2.9403 84.1047C2.9403 84.1047 2.9403 84.1047 2.9403 84.1047Z" fill="#B8231F" transform="translate(118.015 152.111)" />
      <path id="Shape" d="M132.961 87.9244C84.873 85.9462 77.3592 85.4688 58.4767 82.8085C54.3604 82.1946 48.7414 81.5125 46.0625 81.1715C38.2221 80.2847 20.3849 76.9424 9.47358 74.3503C6.40272 73.6682 3.13585 72.9179 2.22112 72.7133C0.195663 72.2358 -0.523048 70.2576 0.391678 67.7338C0.979713 66.0285 2.8745 63.8458 13.3938 52.5227C19.7316 45.7698 22.7371 42.291 23.3905 41.1314C23.6518 40.7222 19.8622 32.1957 15.0273 22.2369C10.1923 12.2098 6.2067 3.75162 6.2067 3.34235C6.2067 2.11455 9.01621 0.0682106 10.6497 0C11.499 0 13.9819 0.477478 16.2033 1.02317C42.665 7.50325 74.615 11.7323 115.647 14.1197C144.591 15.8932 215.221 15.825 243.382 14.1197C282.845 11.7323 314.599 7.36682 339.558 0.95496C344.197 -0.204636 346.615 -0.204636 348.118 0.95496C350.274 2.66024 349.62 4.50195 339.754 24.8289C335.638 33.4235 332.241 40.6539 332.241 40.9268C332.241 41.1996 335.834 45.2923 340.277 49.9989C356.546 67.3928 355.762 66.4378 355.762 69.1663C355.762 72.0993 355.566 72.2358 346.615 74.2821C326.818 78.7841 302.773 82.5357 284.871 83.9681C280.232 84.3092 274.025 84.9231 271.15 85.2641C251.418 87.8562 169.289 89.425 132.961 87.9244C132.961 87.9244 132.961 87.9244 132.961 87.9244ZM97.8751 68.0067C101.207 66.3696 102.71 64.8007 100.946 64.8007C100.554 64.8007 100.097 64.3233 99.8352 63.7094C99.6392 63.0954 98.7898 61.9359 98.0058 61.1173C96.5684 59.6167 96.503 59.6167 94.3469 60.7763C91.4067 62.4133 85.7877 63.0954 84.0236 62.1405C83.0435 61.5948 82.6515 60.7081 82.6515 59.071C82.6515 57.0246 82.9782 56.5472 85.461 55.3194C87.0291 54.5008 88.9239 53.8869 89.6426 53.8869C92.7135 53.8869 98.9859 50.7492 100.685 48.43C102.187 46.3155 102.318 45.4969 102.122 41.2678C101.861 35.5381 100.685 33.4235 96.2417 31.0361C93.6282 29.6037 92.2561 29.3309 87.5518 29.3309C81.3448 29.3309 74.8764 31.1726 72.3935 33.6964C72.3935 33.6964 70.8908 35.1288 70.8908 35.1288L73.7003 38.2665L76.4445 41.4043C76.4445 41.4043 79.3193 39.4943 79.3193 39.4943C82.7822 37.1752 88.2052 36.2884 90.884 37.6526C93.5628 38.9487 93.8242 42.291 91.4067 44.2691C90.4267 45.0195 89.1852 45.7016 88.5972 45.7016C85.5917 45.838 78.2086 49.1121 75.9871 51.4313C73.6349 53.7505 73.5043 54.0916 73.5043 58.1842C73.5043 63.1637 75.0724 66.0967 79.254 68.757C81.4101 70.1212 82.3248 70.3259 87.8785 70.1212C92.9748 69.9166 94.7389 69.5755 97.8751 68.0067C97.8751 68.0067 97.8751 68.0067 97.8751 68.0067ZM140.671 69.712L145.375 69.5755L145.375 65.4828L145.375 61.3902L139.168 61.3902L132.961 61.3902L132.961 45.7016L132.961 30.013L128.388 30.013L123.814 30.013L123.683 45.5652L123.487 61.0491L117.476 61.2538L111.4 61.4584C111.4 61.4584 111.4 65.4828 111.4 65.4828C111.4 67.6656 111.727 69.5755 112.053 69.712C112.772 69.9166 133.027 69.9848 140.671 69.712C140.671 69.712 140.671 69.712 140.671 69.712ZM183.467 68.4841C189.936 65.0054 193.072 61.1856 194.444 55.0465C197.253 41.7453 187.453 29.2627 174.189 29.3309C166.676 29.3991 159.619 33.8328 155.829 40.9268C154.392 43.587 154.196 44.8148 154.196 50.5446C154.196 56.9564 154.261 57.2293 156.418 60.4352C161.187 67.5292 166.022 70.1894 174.32 70.1894C179.286 70.2576 180.527 69.9848 183.467 68.4841C183.467 68.4841 183.467 68.4841 183.467 68.4841ZM231.948 68.8252C234.561 67.802 236.194 66.5742 237.959 64.3233C240.311 61.3902 240.441 60.9127 240.441 56.5472C240.441 52.4545 240.245 51.7042 238.416 49.3168C237.305 47.8843 235.606 46.3155 234.692 45.838C232.536 44.7466 232.34 42.3592 234.234 40.5857C234.953 39.9036 235.541 39.0851 235.541 38.744C235.541 38.403 236.717 36.493 238.155 34.4467C239.592 32.4004 240.768 30.5587 240.768 30.354C240.768 30.1494 238.481 30.013 235.606 30.013C231.294 30.013 230.379 30.2176 230.053 31.2408C229.53 32.8778 227.374 36.6977 226.133 38.1301C225.544 38.8122 225.087 39.5626 225.087 39.9036C225.087 41.5407 222.735 42.9731 220.056 42.9731C220.056 42.9731 217.247 42.9731 217.247 42.9731L217.247 36.493L217.247 30.013L212.673 30.013L208.099 30.013C208.099 30.013 208.099 49.6578 208.099 49.6578C208.099 60.5034 208.295 69.5755 208.557 69.7802C208.753 70.053 213.326 70.2576 218.619 70.2576C226.786 70.2576 228.877 70.053 231.948 68.8252C231.948 68.8252 231.948 68.8252 231.948 68.8252ZM282.584 66.165L282.584 62.1405L272.653 61.9359L262.656 61.7312C262.656 61.7312 262.46 57.8432 262.46 57.8432C262.264 53.9551 262.591 53.4095 264.616 53.8869C265.008 53.9551 268.275 53.8187 271.999 53.5459C271.999 53.5459 278.664 53.0684 278.664 53.0684C278.664 53.0684 278.664 49.7943 278.664 49.7943C278.664 47.4751 278.402 46.3837 277.618 46.1108C277.03 45.9062 273.371 45.7016 269.451 45.7016C269.451 45.7016 262.264 45.7016 262.264 45.7016L262.46 41.8135L262.656 37.8573L272.653 37.6526L282.584 37.448L282.584 33.7646L282.584 30.013L268.21 30.013L253.836 30.013L253.836 50.1353L253.836 70.2576L268.21 70.2576L282.584 70.2576L282.584 66.165L282.584 66.165Z" fill="#093F64" transform="translate(81.1 55.251)" />
      <path id="Path" d="M5.24898 22.6385C0.348663 19.5689 -1.3501 13.2253 1.13272 7.1545C6.03302 -4.71427 22.106 -0.962654 22.106 12.1339C22.106 21.8199 12.9588 27.4815 5.24898 22.6385C5.24898 22.6385 5.24898 22.6385 5.24898 22.6385Z" fill="#093F64" transform="translate(244.225 92.912)" />
      <path id="Path" d="M0 6.13902L0 0C0 0 3.65891 0 3.65891 0C9.08191 0 12.7408 1.15959 13.6555 3.13772C14.8316 5.86617 14.5049 8.52641 12.7408 10.5045C11.3034 12.1416 10.7807 12.278 5.55368 12.278C5.55368 12.278 0 12.278 0 12.278L0 6.13902L0 6.13902Z" fill="#093F64" transform="translate(298.347 105.045)" />
      <path id="Path" d="M14.4396 44.8235C13.8515 44.1414 13.3942 43.3911 13.3942 43.1183C13.3942 42.8454 12.9368 42.1633 12.4141 41.6176C10.3887 39.5031 11.238 38.0706 15.877 35.6832C18.2945 34.4554 21.1693 32.8184 22.3454 32.068C22.3454 32.068 24.4362 30.7038 24.4362 30.7038C24.4362 30.7038 13.1982 24.7012 13.1982 24.7012C6.9911 21.3589 1.5681 18.3576 1.11073 17.8801C0.718719 17.4708 0.261353 15.8337 0.130676 14.4013C0.130676 14.4013 0 11.6729 0 11.6729C0 11.6729 5.29233 8.9444 5.29233 8.9444C8.23251 7.44375 13.0675 5.05636 16.073 3.62392C19.0785 2.19148 22.0841 0.690836 22.7374 0.34978C23.3908 0.00872326 24.2402 -0.127699 24.5669 0.145146C25.3509 0.622624 27.7031 5.80668 27.7684 7.03449C27.7684 7.51196 24.9589 9.21725 21.5614 10.9225C18.1638 12.6278 15.3543 14.3331 15.3543 14.6741C15.3543 15.4245 28.4218 23.1323 34.4328 25.9972C36.4583 26.9522 37.0463 27.7025 37.6344 29.9535C38.0917 31.727 38.1571 33.1594 37.765 33.8415C37.2424 34.7283 23.5868 42.3679 17.5758 45.0964C15.7463 45.9831 15.4196 45.9149 14.4396 44.8235C14.4396 44.8235 14.4396 44.8235 14.4396 44.8235Z" fill="#093F64" transform="translate(162.118 12.542)" />
      <path id="Shape" d="M16.0756 41.4744C10.7179 39.087 1.04797 33.9029 0.329254 33.0162C-0.324127 32.1977 -0.0627747 31.1745 1.63602 27.4229C14.5728 -0.748405 14.1808 0.00191879 15.4222 0.00191879C17.1863 0.00191879 22.544 3.07143 22.6093 4.0946C22.6093 4.64029 22.0213 6.34557 21.2373 7.77801C18.5584 13.0303 18.4931 13.5078 20.6492 14.6673C22.4787 15.6223 22.6093 15.6223 25.4842 13.3031C27.183 12.0071 28.8164 10.9157 29.1431 10.9157C29.5351 10.9157 29.7965 10.5747 29.7965 10.2336C29.7965 9.82435 30.5152 9.21045 31.3646 8.73297C32.7367 8.11906 33.7167 8.3237 37.3103 9.96077C40.0545 11.2568 41.5572 12.28 41.4265 12.8939C41.2959 13.4395 38.813 15.6223 35.8729 17.6686C32.9327 19.7832 30.3192 21.6931 30.1232 21.8977C29.9272 22.1706 30.3192 23.5348 31.0379 24.9673C32.606 27.9686 32.6713 29.1964 31.6913 32.8116C29.6005 39.9737 22.0866 44.1346 16.0756 41.4744C16.0756 41.4744 16.0756 41.4744 16.0756 41.4744ZM20.8452 31.9248C21.8253 31.1063 22.2827 28.9917 22.0867 26.6043C22.0213 26.0586 20.3879 24.7626 18.4931 23.7395C14.6382 21.5567 14.1155 21.4885 14.1155 22.7163C14.1155 23.9441 12.5474 27.2864 12.0247 27.2864C11.698 27.2864 11.502 27.8321 11.502 28.5142C11.502 29.2646 12.6781 30.2195 14.6382 31.1745C18.2971 32.8798 19.4078 33.0162 20.8452 31.9248C20.8452 31.9248 20.8452 31.9248 20.8452 31.9248Z" fill="#093F64" transform="translate(318.207 13.64)" />
      <path id="Path" d="M19.6012 36.8802C17.0531 33.3332 9.08191 21.2598 7.51381 18.6678C7.18712 18.0539 6.66441 17.44 6.46841 17.2353C5.74969 16.6896 0 7.54933 0 7.07185C0 6.45795 6.53375 4.27519 8.23251 4.27519C8.88589 4.27519 10.1926 5.36657 11.1074 6.66258C12.9368 9.32282 13.9169 9.45925 19.9933 8.29965C24.6976 7.41291 25.4816 6.79901 25.4816 3.93413C25.4816 0.932835 26.4617 0.318933 31.362 0.0460883C34.8249 -0.0903343 35.6089 0.0460883 35.4782 0.864624C35.3476 2.22885 33.5835 13.7566 32.0154 23.0333C31.2966 27.1942 30.5779 31.969 30.3819 33.7425C29.9246 37.4941 29.2712 38.0398 24.5015 38.6537C21.3 39.1312 21.1693 39.0629 19.6012 36.8802C19.6012 36.8802 19.6012 36.8802 19.6012 36.8802Z" fill="#093F64" transform="translate(197.074 1.864)" />
      <path id="Path" d="M8.10184 38.403C6.92578 38.1301 5.74969 37.5162 5.48834 37.1752C5.22699 36.7659 4.57361 33.1507 3.92026 29.058C3.26688 25.0335 2.2868 19.0992 1.7641 15.8932C1.17609 12.6873 0.588043 7.8443 0.392029 5.04764C0.392029 5.04764 0 0 0 0C0 0 1.56808 0.409268 1.56808 0.409268C2.41748 0.613902 4.44293 1.02317 6.07639 1.29601C9.34326 1.8417 9.99661 2.45561 9.99661 5.18406C9.99661 7.29861 10.9113 7.8443 17.2491 9.20852C21.2346 10.0271 21.3 10.0271 22.3454 8.38999C25.1549 3.95625 24.9589 4.09268 29.5325 5.38869C31.8193 6.0708 33.7794 6.95755 33.9755 7.43503C34.2368 8.18535 31.95 12.3462 29.9899 14.7336C29.4018 15.3475 28.9445 16.0297 28.9445 16.2343C28.9445 16.9164 19.6666 31.2408 19.0785 31.4454C18.7518 31.5818 18.4905 31.9911 18.4905 32.2639C18.4905 32.605 17.5758 34.2421 16.465 35.9473C14.3089 39.2897 13.1982 39.6308 8.10184 38.403C8.10184 38.403 8.10184 38.403 8.10184 38.403Z" fill="#093F64" transform="translate(285.083 1.16)" />
      <path id="Shape" d="M0.84938 36.0838C0.196014 35.4017 0 30.7633 0 17.5985C0 17.5985 0 0 0 0C0 0 8.82054 0 8.82054 0C16.7917 0 17.9024 0.136423 21.1693 1.70528C28.1604 5.04763 31.2313 11.3231 30.5126 20.9409C29.9899 27.9666 27.8991 31.5818 22.6067 34.4467C19.0132 36.2884 18.2291 36.493 10.1926 36.6977C3.78957 36.9023 1.43742 36.7659 0.84938 36.0838C0.84938 36.0838 0.84938 36.0838 0.84938 36.0838ZM17.8371 26.466C19.3399 25.6475 20.908 21.5548 20.908 18.2806C20.908 12.278 17.5757 8.86748 11.826 8.86748C11.826 8.86748 9.14723 8.86748 9.14723 8.86748L9.14723 18.4853L9.14723 28.0348C9.14723 28.0348 12.9368 27.5574 12.9368 27.5574C14.9622 27.3527 17.1837 26.807 17.8371 26.466C17.8371 26.466 17.8371 26.466 17.8371 26.466Z" fill="#093F64" transform="translate(244.77 0)" />
    </g>
  </g>
</svg>